<svg width="120" height="120" viewBox="0 0 120 120" fill="none" xmlns="http://www.w3.org/2000/svg">
<path d="M60 103.2C45 103.2 31.74 95.52 24 84C24.18 72 48 65.4 60 65.4C72 65.4 95.82 72 96 84C88.26 95.52 75 103.2 60 103.2ZM60 18C64.7739 18 69.3523 19.8964 72.7279 23.2721C76.1036 26.6477 78 31.2261 78 36C78 40.7739 76.1036 45.3523 72.7279 48.7279C69.3523 52.1036 64.7739 54 60 54C55.2261 54 50.6477 52.1036 47.2721 48.7279C43.8964 45.3523 42 40.7739 42 36C42 31.2261 43.8964 26.6477 47.2721 23.2721C50.6477 19.8964 55.2261 18 60 18ZM60 0C52.1207 0 44.3185 1.55195 37.039 4.56723C29.7595 7.58251 23.1451 12.0021 17.5736 17.5736C6.32141 28.8258 0 44.087 0 60C0 75.913 6.32141 91.1742 17.5736 102.426C23.1451 107.998 29.7595 112.417 37.039 115.433C44.3185 118.448 52.1207 120 60 120C75.913 120 91.1742 113.679 102.426 102.426C113.679 91.1742 120 75.913 120 60C120 26.82 93 0 60 0Z" fill="#DBE5ED"/>
</svg>
