<svg width="22" height="19" viewBox="0 0 22 19" fill="none" xmlns="http://www.w3.org/2000/svg">
<path d="M19.4375 0.25H2.5625C1.61328 0.25 0.875 1.02344 0.875 1.9375V13.1875C0.875 14.1367 1.61328 14.875 2.5625 14.875H9.3125L8.75 16.5625H6.21875C5.72656 16.5625 5.375 16.9492 5.375 17.4062C5.375 17.8984 5.72656 18.25 6.21875 18.25H15.7812C16.2383 18.25 16.625 17.8984 16.625 17.4062C16.625 16.9492 16.2383 16.5625 15.7812 16.5625H13.25L12.6875 14.875H19.4375C20.3516 14.875 21.125 14.1367 21.125 13.1875V1.9375C21.125 1.02344 20.3516 0.25 19.4375 0.25ZM18.875 12.625H3.125V2.5H18.875V12.625Z" fill="#1A75BA"/>
</svg>
