<svg width="173" height="114" viewBox="0 0 173 114" fill="none" xmlns="http://www.w3.org/2000/svg">
<path fill-rule="evenodd" clip-rule="evenodd" d="M29.7876 6.69397V12.9314H19.1928V40.2809H12.4981V12.9314H2V6.69397H29.7876Z" fill="white"/>
<path fill-rule="evenodd" clip-rule="evenodd" d="M74.9227 16.9613C74.1521 13.6024 71.2146 11.8755 68.2284 11.8755C65.1464 11.8755 63.172 13.3626 63.172 15.3779C63.172 18.0652 66.9763 19.0248 71.2146 20.4645C76.1265 22.1433 81.7611 24.7343 81.7611 30.7323C81.7611 36.7307 76.5597 41.0001 68.8545 41.0001C63.1372 41.0001 58.865 38.4027 56.4692 34.1933L61.535 29.1967C62.2568 32.2197 64.954 35.0506 69.1436 35.0506C72.7554 35.0506 74.634 33.2752 74.634 31.0203C74.634 27.6138 70.0587 26.7974 65.291 25.1186C61.2942 23.6789 56.2857 21.6154 56.2857 15.7614C56.2857 10.5317 61.4867 6.0697 68.6141 6.0697C73.5091 6.0697 77.6355 8.43561 79.9079 11.9363L74.9227 16.9613Z" fill="white"/>
<path fill-rule="evenodd" clip-rule="evenodd" d="M102.342 40.2811L91.3144 25.2152L78.5786 37.7665C78.5786 37.7665 74.0948 34.0268 74.1431 34.0268H74.191C74.2394 34.0268 89.2433 19.0251 92.3741 15.907L101.62 6.69421H109.855L95.7451 20.801L110.289 40.2811H102.342Z" fill="white"/>
<path fill-rule="evenodd" clip-rule="evenodd" d="M33.5857 27.7291L20.8499 40.2812C20.8499 40.2812 12.3834 40.2732 12.4322 40.2732L16.4624 36.5415C16.5107 36.5415 31.5151 21.5398 34.6454 18.4208L46.3935 6.69434H54.6278L38.0165 23.3153L33.5857 27.7291Z" fill="white"/>
<path fill-rule="evenodd" clip-rule="evenodd" d="M134.416 34.0439V40.2813H110.289V6.69397H136.299V12.9314H116.982V20.0807H130.515L130.179 25.9351H116.982V34.0439H134.416Z" fill="white"/>
<path fill-rule="evenodd" clip-rule="evenodd" d="M163.503 10.0229V40.2814H157.195L147.611 27.3263C144.577 23.2005 140.869 17.9218 140.821 17.9218H140.773C140.725 17.9218 140.821 22.7676 140.821 29.4375V40.2814H134.127V6.69446H140.436L150.211 19.7931C152.524 22.8158 156.762 28.8142 156.81 28.8142H156.857C156.906 28.8142 156.81 23.3437 156.81 17.6819V6.69446H163.503V10.0229Z" fill="white"/>
<path fill-rule="evenodd" clip-rule="evenodd" d="M33.422 25.8425H54.6277V20.0806H33.422V25.8425Z" fill="white"/>
<path fill-rule="evenodd" clip-rule="evenodd" d="M48.3987 40.2537H55.1599V6.69385H48.3987V40.2537Z" fill="white"/>
<path fill-rule="evenodd" clip-rule="evenodd" d="M88.0498 17.5223V0.00012207H81.3674V24.2087L88.0498 17.5223Z" fill="white"/>
<path fill-rule="evenodd" clip-rule="evenodd" d="M79.8848 0V8.13541L88.05 0H79.8848Z" fill="#1B75BB"/>
<path fill-rule="evenodd" clip-rule="evenodd" d="M170.079 9.47347C170.204 9.47347 170.317 9.43335 170.42 9.35395C170.522 9.27413 170.573 9.1677 170.573 9.03467C170.573 8.89276 170.515 8.79098 170.4 8.7289C170.284 8.66681 170.177 8.63556 170.079 8.63556H169.452V9.47347H170.079ZM170.667 11.3752L169.932 10.0584H169.452V11.3752H168.638V7.97081H170.105C170.266 7.97081 170.422 7.98855 170.573 8.02402C170.724 8.0595 170.862 8.11694 170.987 8.19676C171.111 8.27658 171.211 8.38512 171.287 8.5228C171.363 8.66006 171.401 8.83068 171.401 9.03467C171.401 9.26526 171.336 9.45573 171.207 9.6065C171.078 9.75728 170.915 9.86793 170.72 9.93888L171.628 11.3752H170.667ZM167.369 9.71293C167.369 10.0584 167.436 10.3866 167.57 10.6965C167.703 11.0074 167.885 11.2802 168.117 11.5146C168.348 11.7498 168.62 11.9336 168.931 12.0666C169.242 12.1996 169.576 12.2659 169.932 12.2659C170.288 12.2659 170.621 12.1996 170.933 12.0666C171.245 11.9336 171.516 11.7498 171.748 11.5146C171.979 11.2802 172.161 11.0074 172.295 10.6965C172.428 10.3866 172.495 10.0584 172.495 9.71293C172.495 9.35817 172.428 9.0258 172.295 8.71538C172.161 8.40497 171.979 8.13467 171.748 7.90408C171.516 7.67391 171.245 7.49188 170.933 7.35885C170.621 7.22623 170.288 7.15951 169.932 7.15951C169.576 7.15951 169.242 7.22623 168.931 7.35885C168.62 7.49188 168.348 7.67391 168.117 7.90408C167.885 8.13467 167.703 8.40497 167.57 8.71538C167.436 9.0258 167.369 9.35817 167.369 9.71293ZM166.889 9.71293C166.889 9.29609 166.969 8.90374 167.129 8.53589C167.29 8.16804 167.507 7.84875 167.783 7.57846C168.058 7.30816 168.382 7.09277 168.751 6.93355C169.12 6.77391 169.514 6.69409 169.932 6.69409C170.35 6.69409 170.744 6.77391 171.113 6.93355C171.483 7.09277 171.805 7.30816 172.081 7.57846C172.357 7.84875 172.575 8.16804 172.735 8.53589C172.895 8.90374 172.975 9.29609 172.975 9.71293C172.975 10.1298 172.895 10.5196 172.735 10.8832C172.575 11.2468 172.357 11.5636 172.081 11.8339C171.805 12.1042 171.483 12.317 171.113 12.472C170.744 12.6275 170.35 12.7047 169.932 12.7047C169.514 12.7047 169.12 12.6275 168.751 12.472C168.382 12.317 168.058 12.1042 167.783 11.8339C167.507 11.5636 167.29 11.2468 167.129 10.8832C166.969 10.5196 166.889 10.1298 166.889 9.71293Z" fill="white"/>
<path d="M60.6411 107.192C59.9051 107.192 59.2224 107.053 58.5931 106.776C57.9637 106.499 57.4197 106.12 56.9611 105.64L57.7611 104.712C58.1344 105.107 58.5717 105.427 59.0731 105.672C59.5851 105.907 60.1131 106.024 60.6571 106.024C61.3504 106.024 61.8891 105.869 62.2731 105.56C62.6571 105.24 62.8491 104.824 62.8491 104.312C62.8491 104.045 62.8011 103.821 62.7051 103.64C62.6197 103.448 62.4971 103.288 62.3371 103.16C62.1877 103.021 62.0064 102.899 61.7931 102.792C61.5797 102.685 61.3504 102.573 61.1051 102.456L59.6011 101.8C59.3557 101.693 59.1051 101.565 58.8491 101.416C58.5931 101.267 58.3637 101.085 58.1611 100.872C57.9584 100.659 57.7931 100.408 57.6651 100.12C57.5371 99.8213 57.4731 99.48 57.4731 99.096C57.4731 98.7013 57.5531 98.3333 57.7131 97.992C57.8837 97.6507 58.1131 97.3573 58.4011 97.112C58.6997 96.856 59.0464 96.6587 59.4411 96.52C59.8464 96.3813 60.2891 96.312 60.7691 96.312C61.3984 96.312 61.9797 96.4347 62.5131 96.68C63.0464 96.9147 63.4997 97.224 63.8731 97.608L63.1531 98.472C62.8331 98.1627 62.4757 97.9227 62.0811 97.752C61.6971 97.5707 61.2597 97.48 60.7691 97.48C60.1824 97.48 59.7077 97.6187 59.3451 97.896C58.9931 98.1627 58.8171 98.536 58.8171 99.016C58.8171 99.272 58.8651 99.4907 58.9611 99.672C59.0677 99.8427 59.2064 99.9973 59.3771 100.136C59.5477 100.264 59.7344 100.381 59.9371 100.488C60.1397 100.584 60.3477 100.675 60.5611 100.76L62.0491 101.4C62.3477 101.528 62.6304 101.677 62.8971 101.848C63.1637 102.008 63.3931 102.2 63.5851 102.424C63.7771 102.637 63.9264 102.893 64.0331 103.192C64.1504 103.48 64.2091 103.816 64.2091 104.2C64.2091 104.616 64.1237 105.005 63.9531 105.368C63.7931 105.731 63.5584 106.051 63.2491 106.328C62.9397 106.595 62.5664 106.808 62.1291 106.968C61.6917 107.117 61.1957 107.192 60.6411 107.192ZM66.2759 107V96.504H69.5559C70.0893 96.504 70.5799 96.5573 71.0279 96.664C71.4866 96.76 71.8759 96.9253 72.1959 97.16C72.5266 97.3947 72.7826 97.6987 72.9639 98.072C73.1453 98.4453 73.2359 98.904 73.2359 99.448C73.2359 100.269 73.0226 100.925 72.5959 101.416C72.1693 101.907 71.5933 102.243 70.8679 102.424L73.5399 107H72.0359L69.5079 102.568H67.6039V107H66.2759ZM67.6039 101.48H69.3639C70.1853 101.48 70.8146 101.315 71.2519 100.984C71.6893 100.643 71.9079 100.131 71.9079 99.448C71.9079 98.7547 71.6893 98.2693 71.2519 97.992C70.8146 97.7147 70.1853 97.576 69.3639 97.576H67.6039V101.48ZM79.3533 107.192C78.692 107.192 78.084 107.069 77.5293 106.824C76.9746 106.579 76.4893 106.227 76.0733 105.768C75.668 105.299 75.348 104.728 75.1133 104.056C74.8893 103.373 74.7773 102.605 74.7773 101.752C74.7773 100.909 74.8946 100.152 75.1293 99.48C75.364 98.808 75.6893 98.2373 76.1053 97.768C76.5213 97.2987 77.012 96.9413 77.5773 96.696C78.1426 96.44 78.7613 96.312 79.4333 96.312C80.0733 96.312 80.6333 96.4453 81.1133 96.712C81.604 96.968 82.004 97.2667 82.3133 97.608L81.5933 98.472C81.316 98.1733 81.0013 97.9333 80.6493 97.752C80.2973 97.5707 79.8973 97.48 79.4493 97.48C78.948 97.48 78.4946 97.5813 78.0893 97.784C77.684 97.976 77.3373 98.2587 77.0493 98.632C76.7613 98.9947 76.5373 99.4373 76.3773 99.96C76.228 100.483 76.1533 101.069 76.1533 101.72C76.1533 102.381 76.228 102.979 76.3773 103.512C76.5373 104.035 76.756 104.483 77.0333 104.856C77.3106 105.229 77.6466 105.517 78.0413 105.72C78.4466 105.923 78.9 106.024 79.4013 106.024C79.9133 106.024 80.3613 105.923 80.7453 105.72C81.1293 105.507 81.492 105.213 81.8333 104.84L82.5693 105.672C82.1533 106.152 81.684 106.525 81.1613 106.792C80.6386 107.059 80.036 107.192 79.3533 107.192ZM88.8811 107L86.6571 96.504H88.0331L89.1371 102.216C89.2331 102.792 89.3344 103.357 89.4411 103.912C89.5477 104.467 89.6491 105.032 89.7451 105.608H89.8091C89.9264 105.032 90.0491 104.467 90.1771 103.912C90.3051 103.347 90.4277 102.781 90.5451 102.216L92.0011 96.504H93.2171L94.6731 102.216C94.8011 102.771 94.9291 103.331 95.0571 103.896C95.1851 104.461 95.3131 105.032 95.4411 105.608H95.5051C95.6011 105.032 95.6971 104.467 95.7931 103.912C95.8891 103.347 95.9904 102.781 96.0971 102.216L97.2011 96.504H98.4811L96.3051 107H94.7051L93.1211 100.68C93.0251 100.275 92.9344 99.88 92.8491 99.496C92.7744 99.1013 92.6944 98.7013 92.6091 98.296H92.5451C92.4597 98.7013 92.3691 99.1013 92.2731 99.496C92.1877 99.88 92.1024 100.275 92.0171 100.68L90.4651 107H88.8811ZM100.307 107V96.504H106.355V97.624H101.635V100.92H105.619V102.056H101.635V105.864H106.515V107H100.307ZM108.745 107V96.504H111.865C112.398 96.504 112.883 96.552 113.321 96.648C113.769 96.744 114.147 96.8933 114.457 97.096C114.777 97.2987 115.022 97.5653 115.193 97.896C115.374 98.216 115.465 98.6053 115.465 99.064C115.465 99.5867 115.331 100.061 115.065 100.488C114.809 100.904 114.43 101.192 113.929 101.352V101.416C114.569 101.533 115.086 101.8 115.481 102.216C115.875 102.632 116.073 103.203 116.073 103.928C116.073 104.44 115.977 104.888 115.785 105.272C115.593 105.656 115.321 105.976 114.969 106.232C114.617 106.488 114.195 106.68 113.705 106.808C113.214 106.936 112.675 107 112.089 107H108.745ZM110.073 100.968H111.625C112.521 100.968 113.166 100.813 113.561 100.504C113.955 100.195 114.153 99.7733 114.153 99.24C114.153 98.632 113.945 98.2 113.529 97.944C113.123 97.688 112.51 97.56 111.689 97.56H110.073V100.968ZM110.073 105.944H111.897C112.803 105.944 113.507 105.779 114.009 105.448C114.51 105.107 114.761 104.584 114.761 103.88C114.761 103.229 114.515 102.755 114.025 102.456C113.534 102.147 112.825 101.992 111.897 101.992H110.073V105.944Z" fill="white"/>
<line y1="72.5" x2="173" y2="72.5" stroke="#454545"/>
</svg>
