<svg width="12" height="19" viewBox="0 0 12 19" fill="none" xmlns="http://www.w3.org/2000/svg">
<path d="M9.9375 0.25H2.0625C1.11328 0.25 0.375 1.02344 0.375 1.9375V16.5625C0.375 17.5117 1.11328 18.25 2.0625 18.25H9.9375C10.8516 18.25 11.625 17.5117 11.625 16.5625V1.9375C11.625 1.02344 10.8516 0.25 9.9375 0.25ZM6 17.125C5.36719 17.125 4.875 16.6328 4.875 16C4.875 15.4023 5.36719 14.875 6 14.875C6.59766 14.875 7.125 15.4023 7.125 16C7.125 16.6328 6.59766 17.125 6 17.125ZM9.9375 13.3281C9.9375 13.5742 9.72656 13.75 9.51562 13.75H2.48438C2.23828 13.75 2.0625 13.5742 2.0625 13.3281V2.35938C2.0625 2.14844 2.23828 1.9375 2.48438 1.9375H9.51562C9.72656 1.9375 9.9375 2.14844 9.9375 2.35938V13.3281Z" fill="#14A0C1"/>
</svg>
