<svg width="16" height="19" viewBox="0 0 16 19" fill="none" xmlns="http://www.w3.org/2000/svg">
<path d="M14.1875 0.25H1.8125C0.863281 0.25 0.125 1.02344 0.125 1.9375V16.5625C0.125 17.5117 0.863281 18.25 1.8125 18.25H14.1875C15.1016 18.25 15.875 17.5117 15.875 16.5625V1.9375C15.875 1.02344 15.1016 0.25 14.1875 0.25ZM8 17.125C7.36719 17.125 6.875 16.6328 6.875 16C6.875 15.4023 7.36719 14.875 8 14.875C8.59766 14.875 9.125 15.4023 9.125 16C9.125 16.6328 8.59766 17.125 8 17.125ZM14.1875 13.3281C14.1875 13.5742 13.9766 13.75 13.7656 13.75H2.23438C1.98828 13.75 1.8125 13.5742 1.8125 13.3281V2.35938C1.8125 2.14844 1.98828 1.9375 2.23438 1.9375H13.7656C13.9766 1.9375 14.1875 2.14844 14.1875 2.35938V13.3281Z" fill="#02CC9C"/>
</svg>
